<svg xmlns="http://www.w3.org/2000/svg" width="980" height="460" viewBox="0 0 980 460" role="img" aria-labelledby="title desc">
  <title id="title">README terminal de LucasLouvem</title>
  <desc id="desc">Painel simples com informacoes de perfil e estatisticas publicas do GitHub.</desc>
  <style>
    .mono {
      font-family: ui-monospace, SFMono-Regular, Menlo, Monaco, Consolas, "Liberation Mono", monospace;
      font-size: 16px;
    }
  </style>
  <rect width="980" height="460" rx="18" fill="#0d1117"/>
  <rect x="10" y="10" width="960" height="440" rx="12" fill="none" stroke="#30363d"/>
  <rect x="36" y="36" width="230" height="164" rx="10" fill="none" stroke="#30363d"/>
  <line x1="36" y1="58" x2="266" y2="58" stroke="#30363d"/>
  <circle cx="54" cy="47" r="3" fill="#ff5f56"/>
  <circle cx="66" cy="47" r="3" fill="#ffbd2e"/>
  <circle cx="78" cy="47" r="3" fill="#27c93f"/>
  <text x="56" y="74" class="mono" fill="#58a6ff" font-weight="700">lucas@louvem</text><text x="56" y="98" class="mono" fill="#8b949e">profile --fetch</text><rect x="56" y="126" width="170" height="26" rx="6" fill="#161b22" stroke="#30363d"/><text x="68" y="143" class="mono" fill="#8b949e">fullstack + appsec</text><rect x="56" y="160" width="170" height="26" rx="6" fill="#161b22" stroke="#30363d"/><text x="68" y="177" class="mono" fill="#8b949e">infra + devsecops</text>
  <text x="350" y="44" class="mono" fill="#58a6ff" font-weight="700">lucaslouvem@github</text><text x="350" y="66" class="mono" fill="#c9d1d9" font-weight="700">------------------------------</text><text x="350" y="88" class="mono" fill="#c9d1d9" font-weight="400">cargo ........... Full Stack Junior</text><text x="350" y="110" class="mono" fill="#c9d1d9" font-weight="400">foco ............ Back-end, AppSec</text><text x="350" y="132" class="mono" fill="#c9d1d9" font-weight="400">stack ........... Python, Django, PostgreSQL, Docker</text><text x="350" y="154" class="mono" fill="#c9d1d9" font-weight="400">base ............ Infra, redes, acessos</text><text x="350" y="176" class="mono" fill="#c9d1d9" font-weight="400"></text><text x="350" y="198" class="mono" fill="#c9d1d9" font-weight="400">seguranca ....... Desenvolvimento seguro</text><text x="350" y="220" class="mono" fill="#c9d1d9" font-weight="400">trilha .......... DevSecOps em formacao</text><text x="350" y="242" class="mono" fill="#c9d1d9" font-weight="400">comunidade ...... DESEC, Hackerclub, THM, HTB</text><text x="350" y="264" class="mono" fill="#c9d1d9" font-weight="400">destaque ........ 1o lugar no CTF BSidesRJ</text><text x="350" y="286" class="mono" fill="#c9d1d9" font-weight="400"></text><text x="350" y="308" class="mono" fill="#c9d1d9" font-weight="400">repos ........... 4</text><text x="350" y="330" class="mono" fill="#c9d1d9" font-weight="400">seguidores ...... 3</text><text x="350" y="352" class="mono" fill="#c9d1d9" font-weight="400">estrelas ........ 0</text><text x="350" y="374" class="mono" fill="#c9d1d9" font-weight="400">contribuicoes ... -</text><text x="350" y="396" class="mono" fill="#c9d1d9" font-weight="400">linguagens ...... Python, C, JavaScript</text><text x="350" y="418" class="mono" fill="#c9d1d9" font-weight="400">ultimo push ..... 02/04/2026</text><text x="350" y="440" class="mono" fill="#c9d1d9" font-weight="400">atualizado ...... 02/04/2026</text>
</svg>
